<?xml version="1.0" encoding="UTF-8"?>
<svg width="48px" height="49px" viewBox="0 0 48 49" version="1.1" xmlns="http://www.w3.org/2000/svg" xmlns:xlink="http://www.w3.org/1999/xlink">
    <!-- Generator: Sketch 44.1 (41455) - http://www.bohemiancoding.com/sketch -->
    <title>Combined Shape</title>
    <desc>Created with Sketch.</desc>
    <defs></defs>
    <g id="Modal" stroke="none" stroke-width="1" fill="none" fill-rule="evenodd">
        <g id="01_mobile-views" transform="translate(-941.000000, -1135.000000)" fill="#F7931A">
            <g id="w-basic" transform="translate(880.000000, 744.000000)">
                <g id="systems" transform="translate(20.000000, 218.000000)">
                    <g id="item" transform="translate(0.000000, 150.000000)">
                        <path d="M88.2816312,53.3954534 C85.0757898,66.1551605 72.0521527,73.9205471 59.192033,70.7386217 C46.3371639,67.5574406 38.5115804,54.633241 41.718922,41.8742782 C44.9232633,29.1130826 57.9469004,21.3469516 70.8032697,24.5281327 C83.6626393,27.7093138 91.4874727,40.635002 88.2816312,53.3954534 L88.2816312,53.3954534 Z M75.5827787,44.2404399 C76.0605796,41.0711677 73.6288206,39.367442 70.3037165,38.2308806 L71.3823313,33.9377003 L68.7488008,33.286429 L67.698689,37.4664742 C67.0063653,37.2952829 66.2952895,37.1337676 65.5887143,36.9737409 L66.6463269,32.7661562 L64.0142966,32.114885 L62.9349316,36.4065767 C62.3618706,36.2770667 61.7993107,36.1490454 61.2532525,36.0143253 L61.2562528,36.0009277 L57.624366,35.1010569 L56.9237914,37.8922195 C56.9237914,37.8922195 58.8777495,38.3365726 58.8364951,38.3641121 C59.9031087,38.6283421 60.0958793,39.3287379 60.0636258,39.8839932 L58.834995,44.7748545 C58.9085028,44.7934622 59.0037629,44.8202574 59.1087741,44.8619388 C59.0210148,44.8403538 58.9272548,44.8165358 58.8304945,44.7934622 L57.1083111,51.6448362 C56.9777972,51.9663781 56.6470119,52.448691 55.9014325,52.2655908 C55.9276853,52.3035506 53.9872286,51.7914653 53.9872286,51.7914653 L52.6798394,54.7828473 L56.1069544,55.6306165 C56.7445223,55.7891545 57.3693389,55.9551356 57.9844044,56.1114407 L56.8945383,60.4537455 L59.5250685,61.1050168 L60.6044334,56.8088593 C61.32301,57.0023799 62.0205842,57.1810143 62.7031569,57.3492283 L61.6275424,61.6252895 L64.2610729,62.2765608 L65.350939,57.9424435 C69.8416672,58.7857467 73.2185269,58.445597 74.6399283,54.4151582 C75.7853003,51.1699664 74.5829222,49.2980266 72.2201706,48.0773581 C73.9408538,47.6836181 75.2369919,46.5604543 75.5827787,44.2404399 L75.5827787,44.2404399 Z M69.5656378,52.6131835 C68.7518012,55.8583753 63.2454647,54.1040366 61.4602746,53.6641493 L62.9064286,47.911377 C64.6916187,48.3534972 70.4162284,49.2288058 69.5656378,52.6131835 Z M70.3802246,44.1935483 C69.6376455,47.145482 65.0546574,45.6456972 63.5679991,45.2780081 L64.8791387,40.0603947 C66.365797,40.4280838 71.153557,41.1143377 70.3802246,44.1935483 Z" id="Combined-Shape"></path>
                    </g>
                </g>
            </g>
        </g>
    </g>
</svg>