<?xml version="1.0" encoding="UTF-8"?>
<svg width="54px" height="56px" viewBox="0 0 54 56" version="1.1" xmlns="http://www.w3.org/2000/svg" xmlns:xlink="http://www.w3.org/1999/xlink">
    <!-- Generator: Sketch 44.1 (41455) - http://www.bohemiancoding.com/sketch -->
    <title>VISA Qiwi Wallet</title>
    <desc>Created with Sketch.</desc>
    <defs></defs>
    <g id="Modal" stroke="none" stroke-width="1" fill="none" fill-rule="evenodd">
        <g id="01_mobile-views" transform="translate(-1090.000000, -985.000000)" fill-rule="nonzero" fill="#FF8C00">
            <g id="w-basic" transform="translate(880.000000, 744.000000)">
                <g id="systems" transform="translate(20.000000, 218.000000)">
                    <g id="item" transform="translate(150.000000, 0.000000)">
                        <g id="VISA-Qiwi-Wallet" transform="translate(40.000000, 23.000000)">
                            <path d="M53.8357921,55.0597933 C54.3405439,55.6870404 53.5728492,56.3239247 53.0005776,55.8150781 C47.2863709,50.7373505 42.480388,49.2991979 37.7271034,49.0998446 C35.2044427,48.9941102 32.6968779,49.2366935 30.0754077,49.4690888 C29.5519919,49.5153476 29.0239102,49.561331 28.4897901,49.6037349 C28.2567644,49.6227341 28.0220919,49.6403564 27.7874194,49.6577035 C26.8630019,49.7576555 25.9265077,49.810798 24.9765644,49.810798 C20.5040634,49.810798 16.2838011,48.7113259 12.4313295,46.5415686 C8.56513444,44.366029 5.49243432,41.3269921 3.2991385,37.5087149 C1.10968527,33.6989736 0,29.4891489 0,24.9959891 C0,20.5075103 1.10858739,16.2797879 3.29474697,12.4306715 C5.48529808,8.57577283 8.52286594,5.50672278 12.323188,3.30943052 C16.1235101,1.11351502 20.268842,0 24.6450037,0 C29.2152163,0 33.4868047,1.10002288 37.3411975,3.26978014 C41.2065692,5.4455951 44.2886013,8.49371856 46.5024825,12.3307195 C48.7122465,16.1630395 49.8326362,20.3838782 49.8326362,24.8759366 C49.8326362,26.6100903 49.6649345,28.3034922 49.3358441,29.95036 C49.2935756,30.1893637 49.2323686,30.4790318 49.1461848,30.8166108 C49.0819586,31.0867291 49.0133409,31.3560213 48.9400572,31.6236614 L48.9194719,31.6120967 C48.4767506,33.0340036 47.6525149,35.0465361 46.1184979,37.6306949 C45.9532665,37.9024653 45.8618677,37.6954022 45.840459,37.543409 C45.3035942,33.7427543 43.6433206,30.8565365 40.7169134,28.9924177 C40.668881,28.9618538 40.6194763,28.9323914 40.5706205,28.9026536 C40.09112,28.6066525 39.5789576,28.3376356 39.0324863,28.0953277 C38.3350561,27.7872111 37.5827318,27.5214985 36.773592,27.30232 C36.2773489,27.1684999 35.1712317,27.226048 35.572508,26.8267907 C35.7380138,26.6624068 38.1341436,26.6246838 40.8884576,26.7998064 C40.9419794,26.8031106 40.9955012,26.8064148 41.0495719,26.8099943 C41.100349,26.2306581 41.1266982,25.6367284 41.1266982,25.027379 C41.1266982,20.2850276 39.5619404,16.4182889 36.3426729,13.2071583 C33.1209352,9.99382485 29.3540985,8.43121413 24.8261544,8.43121413 C20.1895199,8.43121413 16.4298195,9.99547695 13.332966,13.2137667 C10.2193697,16.4480267 8.70621241,20.2822741 8.70621241,24.9354122 C8.70621241,29.578913 10.2621871,33.3969148 13.4633396,36.60777 C16.664492,39.8189006 20.3811005,41.38041 24.8261544,41.38041 C25.0394182,41.38041 25.2499373,41.3738016 25.4604564,41.3671932 C25.4555159,41.3132246 25.4519478,41.259256 25.4475562,41.2061135 C25.192024,37.9322031 25.1379532,35.2122967 25.8084853,36.3095661 C26.0453535,36.6975341 26.2811239,37.0640248 26.5160709,37.4167481 C27.3927305,38.7312685 28.2600581,39.8131183 29.1235431,40.7102083 C29.1669095,40.7550903 29.2102758,40.798871 29.2541912,40.8429269 C32.4138985,44.0603906 35.5242011,44.8520216 38.8307503,45.6659559 C38.9012893,45.6838536 38.9715538,45.7012007 39.0418183,45.7182724 C39.5830747,45.8520924 40.1298204,45.9875646 40.6831535,46.1359782 C44.6130258,47.1880902 48.8689693,48.8842456 53.8357921,55.0597933 M42.9316179,35.2626857 C42.4433344,35.1195038 42.0782883,35.2260642 41.8982355,35.5564841 C41.6254116,36.0562442 41.8268731,37.0450257 42.377187,37.9065955 C42.9349116,38.7794547 43.4078247,39.221942 43.7843986,39.221942 C43.9142232,39.221942 44.0303244,39.1671474 44.1206252,39.0641666 C44.3300464,38.82296 44.399213,38.317693 44.3111079,37.6786058 C44.2227284,37.0254758 43.8230989,35.6820437 42.9316179,35.2626857 M37.4273814,39.3378644 C36.9283935,39.3378644 36.5122958,39.5124362 36.2562146,39.8293639 C35.600504,40.6402694 35.8952856,42.0679587 36.8995741,42.9482523 C37.3379039,43.3320901 37.9691866,43.5620073 38.5889416,43.5620073 C39.2199499,43.5620073 39.7463848,43.3243803 40.0713582,42.893733 C40.6557064,42.1081598 40.3194797,40.9946447 39.2152839,40.0579044 C38.6685381,39.5939398 38.0336873,39.3378644 37.4273814,39.3378644" id="Shape"></path>
                        </g>
                    </g>
                </g>
            </g>
        </g>
    </g>
</svg>