<?xml version="1.0" encoding="UTF-8"?>
<svg width="48px" height="48px" viewBox="0 0 48 48" version="1.1" xmlns="http://www.w3.org/2000/svg" xmlns:xlink="http://www.w3.org/1999/xlink">
    <!-- Generator: Sketch 44.1 (41455) - http://www.bohemiancoding.com/sketch -->
    <title>WebMoney logo blue_8 [Converted]-02</title>
    <desc>Created with Sketch.</desc>
    <defs></defs>
    <g id="Modal" stroke="none" stroke-width="1" fill="none" fill-rule="evenodd">
        <g id="01_mobile-views" transform="translate(-941.000000, -986.000000)" fill="#006BB3">
            <g id="w-basic" transform="translate(880.000000, 744.000000)">
                <g id="systems" transform="translate(20.000000, 218.000000)">
                    <g id="item">
                        <g id="WebMoney-logo-blue_8-[Converted]-02" transform="translate(41.000000, 24.000000)">
                            <path d="M24.0035397,0 C27.7725144,0 31.3419239,0.877059518 34.5209216,2.43503879 C35.0203192,2.67185939 35.5187481,2.93289478 36.0176613,3.22008213 L33.8079116,5.19746148 L30.4879588,1.76525784 L24.8846302,6.7627052 L21.5564429,3.13097172 L11.1184997,12.5379315 L17.8097497,19.9113335 L15.180041,22.2233612 L21.771024,29.6079021 L19.1572999,31.9150868 L28.5756194,42.397183 L34.1663541,37.2510569 L39,42.765732 C38.0389865,43.5130003 36.9917531,44.2161977 35.8379557,44.8661225 C32.3421723,46.8589993 28.3024281,48 24.0035397,48 C10.7828231,47.9995157 0,37.2176405 0,24.0007264 C0,10.7809066 10.7828231,0 24.0035397,0 L24.0035397,0 Z" id="Shape"></path>
                            <polygon id="Shape" points="19 23.2121807 24.7883104 18 30 23.7897839 24.2126719 29"></polygon>
                            <polygon id="Shape" points="23 32.2107073 28.788052 27 34 32.7878193 28.2124392 38"></polygon>
                            <polygon id="Shape" points="16 12.2114053 21.7888532 7 27 12.7885947 21.2111468 18"></polygon>
                            <polygon id="Shape" points="26 9.78924808 30.2098244 6 34 10.2093231 29.7901756 14"></polygon>
                            <polygon id="Shape" points="33 27.7906769 37.2105013 24 41 28.2102756 36.7909275 32"></polygon>
                            <polygon id="Shape" points="37 35.7916046 41.2083954 32 45 36.2098244 40.7901756 40"></polygon>
                            <polygon id="Shape" points="39 16.8429796 42.1575563 14 45 17.1575563 41.8440514 20"></polygon>
                            <polygon id="Shape" points="35 8.84244373 38.1572743 6 41 9.15755627 37.8421899 12"></polygon>
                            <polygon id="Shape" points="42 24.8424437 45.1575563 22 48 25.1570204 44.8429796 28"></polygon>
                            <polygon id="Shape" points="30 18.7916046 34.2098244 15 38 19.2098244 33.7916046 23"></polygon>
                        </g>
                    </g>
                </g>
            </g>
        </g>
    </g>
</svg>