<?xml version="1.0" encoding="UTF-8"?>
<svg width="39px" height="51px" viewBox="0 0 39 51" version="1.1" xmlns="http://www.w3.org/2000/svg" xmlns:xlink="http://www.w3.org/1999/xlink">
    <!-- Generator: Sketch 44.1 (41455) - http://www.bohemiancoding.com/sketch -->
    <title>Yandex.Money</title>
    <desc>Created with Sketch.</desc>
    <defs></defs>
    <g id="Modal" stroke="none" stroke-width="1" fill="none" fill-rule="evenodd">
        <g id="01_mobile-views" transform="translate(-1096.000000, -1130.000000)">
            <g id="w-basic" transform="translate(880.000000, 744.000000)">
                <g id="systems" transform="translate(20.000000, 218.000000)">
                    <g id="item" transform="translate(150.000000, 150.000000)">
                        <g id="Yandex.Money" transform="translate(46.000000, 18.000000)">
                            <g id="Yandex.Money-03">
                                <path d="M38.9070638,50.8880603 C27.3531064,50.8880603 15.7991489,50.8633295 4.24531003,50.907703 C1.76519453,50.9171694 0.0979148936,49.0610534 0.118659574,46.8207216 C0.186465046,39.5070139 0.164297872,32.1922413 0.130987842,24.8781787 C0.121860182,22.8466984 0.812006079,21.1574269 2.18115502,19.6945197 C3.74079939,18.0280858 5.58257143,16.7017309 7.3842766,15.3241392 C13.8256778,10.3992668 20.165845,5.3457703 26.5292462,0.32161949 C26.6345106,0.238552204 26.7421459,0.158443155 26.949,0.000118329466 C26.949,7.0034478 26.949,13.9078538 26.9488815,20.8121415 C26.9440213,21.0682065 26.9350122,21.3243898 26.9350122,21.5804548 C26.9340638,25.1684408 26.9312188,28.7564269 26.9392796,32.344413 C26.9401094,32.7059095 26.8664954,32.9610278 26.5311429,33.1806473 C25.5112158,33.8486172 24.5264954,34.5695986 23.5177112,35.2549629 C18.6677234,38.5497285 13.8139422,41.8389327 8.96253191,45.1316868 C7.69924012,45.9892204 6.43997872,46.8526705 5.12334347,47.7512645 C5.41661398,47.8432065 5.59134347,47.7116241 5.76666565,47.6549443 C8.98884802,46.6141183 12.2077112,45.563116 15.4275228,44.5148353 C21.0064195,42.698478 26.5837751,40.8776241 32.1676505,39.076413 C32.5875228,38.9409258 32.7576292,38.7791694 32.7560881,38.3108213 C32.7377143,32.4951647 32.7432857,26.6795081 32.742693,20.8638515 C34.7974833,20.8534385 36.852155,20.8429072 38.9069453,20.8324942 C38.9070638,30.8509768 38.9070638,40.8695777 38.9070638,50.8880603 Z M21.7391216,20.6675429 C21.7464711,19.2497193 20.8243404,18.4139582 19.4918207,18.6306195 C17.5924377,18.9395777 15.8120699,20.9845476 15.772003,22.9033782 C15.7413009,24.3730302 16.7446322,25.2251206 18.182535,24.950478 C20.0137568,24.6009327 21.7295198,22.5347819 21.7391216,20.6675429 Z" id="Shape" fill="#F2CB00" fill-rule="nonzero"></path>
                                <path d="M32.7428116,20.8638515 C32.7434043,26.6795081 32.7379514,32.4951647 32.7562067,38.3108213 C32.7576292,38.7791694 32.5876413,38.9409258 32.167769,39.076413 C26.5840122,40.8776241 21.006538,42.698478 15.4276413,44.5148353 C12.2078298,45.563116 8.98896657,46.6141183 5.76678419,47.6549443 C5.59146201,47.7116241 5.41673252,47.8432065 5.12346201,47.7512645 C6.43997872,46.8526705 7.69924012,45.9892204 8.96265046,45.1316868 C13.8139422,41.8388144 18.6678419,38.5497285 23.5178298,35.2549629 C24.526614,34.5697169 25.5113343,33.8486172 26.5312614,33.1806473 C26.866614,32.9610278 26.9401094,32.7059095 26.9393982,32.344413 C26.9312188,28.7564269 26.9341824,25.1684408 26.9351307,21.5804548 C26.9351307,21.3242715 26.9441398,21.0682065 26.949,20.8121415 C28.6641702,20.8205429 30.3793404,20.8279977 32.0943921,20.8382923 C32.3106109,20.8394756 32.5267112,20.8549768 32.7428116,20.8638515 Z" id="Shape" fill="#CAAA00" fill-rule="nonzero"></path>
                                <path d="M21.7391216,20.6675429 C21.7295198,22.5347819 20.0137568,24.6009327 18.182535,24.9505963 C16.7446322,25.2251206 15.7413009,24.3730302 15.772003,22.9034965 C15.8120699,20.9846659 17.5924377,18.9395777 19.4918207,18.6307378 C20.8243404,18.4139582 21.7464711,19.2497193 21.7391216,20.6675429 Z" id="Shape" fill="#030200" fill-rule="nonzero"></path>
                            </g>
                        </g>
                    </g>
                </g>
            </g>
        </g>
    </g>
</svg>