<?xml version="1.0" encoding="UTF-8"?>
<svg width="37px" height="24px" viewBox="0 0 37 24" version="1.1" xmlns="http://www.w3.org/2000/svg" xmlns:xlink="http://www.w3.org/1999/xlink">
    <!-- Generator: Sketch 44.1 (41455) - http://www.bohemiancoding.com/sketch -->
    <title>discover</title>
    <desc>Created with Sketch.</desc>
    <defs>
        <path d="M2.60860379,0 C1.16818321,0 -2.2470155e-16,1.17985025 0,2.63491765 L0,21.3650822 C0,22.8204244 1.16780885,24 2.60860379,24 L34.3913961,24 C35.831817,24 37,22.8201495 37,21.3650822 L37,12.8649887 L37,2.63491765 C37,1.17957543 35.8321913,-2.26919837e-16 34.3913961,0 L2.60860379,0 L2.60860379,0 L2.60860379,0 Z" id="path-1"></path>
    </defs>
    <g id="Modal" stroke="none" stroke-width="1" fill="none" fill-rule="evenodd">
        <g id="01_mobile-views" transform="translate(-644.000000, -248.000000)">
            <g id="w-basic" transform="translate(480.000000, 80.000000)">
                <g id="form" transform="translate(20.000000, 168.000000)">
                    <g id="cards-list">
                        <g id="discover" transform="translate(144.000000, 0.000000)">
                            <g id="Shape">
                                <use fill="#FFFFFF" fill-rule="evenodd" xlink:href="#path-1"></use>
                                <path stroke="#C3D0D9" stroke-width="1" d="M2.60860379,0.5 C1.44541178,0.5 0.5,1.45491923 0.5,2.63491765 L0.5,21.3650822 C0.5,22.5453942 1.44507584,23.5 2.60860379,23.5 L34.3913961,23.5 C35.5545883,23.5 36.5,22.5450807 36.5,21.3650822 L36.5,2.63491765 C36.5,1.45460566 35.5549243,0.5 34.3913961,0.5 L2.60860379,0.5 Z"></path>
                            </g>
                            <path d="M15.6719684,7.75533317 C16.0952766,7.75533317 16.4503128,7.84082539 16.8823914,8.04706204 L16.8823914,9.13697629 C16.4731152,8.76028216 16.1180757,8.60263856 15.6485777,8.60263856 C14.7257581,8.60263856 14,9.32189461 14,10.2338137 C14,11.1954572 14.7032972,11.8719123 15.6943301,11.8719123 C16.1404412,11.8719123 16.4889016,11.7224354 16.8823914,11.3517964 L16.8823914,12.4422716 C16.4349164,12.6406184 16.0722759,12.718937 15.6485777,12.718937 C14.1502376,12.718937 12.9859655,11.636502 12.9859655,10.2405499 C12.9859655,8.85964407 14.1812292,7.75533317 15.6719684,7.75533317 L15.6719684,7.75533317 L15.6719684,7.75533317 Z M11.0198352,7.78536671 C11.5729231,7.78536671 12.0790189,7.96359473 12.5021519,8.3120321 L11.9872757,8.94666922 C11.7309519,8.67621269 11.4885447,8.56212599 11.1937686,8.56212599 C10.7696613,8.56212551 10.4607971,8.78943042 10.4607971,9.08851066 C10.4607971,9.34502228 10.6341954,9.48078467 11.2246443,9.6864709 C12.3439171,10.0717887 12.6756177,10.4134563 12.6756177,11.1679454 C12.6756177,12.0873873 11.9582304,12.7273576 10.9357222,12.7273576 C10.1869811,12.7273576 9.64263856,12.4497701 9.1892776,11.8233533 L9.8248503,11.247006 C10.0514917,11.6594798 10.4295162,11.8804268 10.8988584,11.8804268 C11.337817,11.8804268 11.6627995,11.5952838 11.6627995,11.2105164 C11.6627995,11.0110687 11.564365,10.8400407 11.3677954,10.7191243 C11.2688287,10.6618769 11.0728,10.5765226 10.6875938,10.4486338 C9.76344814,10.1354256 9.4463885,9.80063904 9.4463885,9.14633246 C9.4463885,8.36909126 10.1272824,7.78536671 11.0198352,7.78536671 L11.0198352,7.78536671 L11.0198352,7.78536671 Z M22.2640345,7.86817006 L23.3388848,7.86817006 L24.6842251,11.0581959 L26.0468752,7.86817006 L27.1135851,7.86817006 L24.9342251,12.7393337 L24.4047531,12.7393337 L22.2640345,7.86817006 L22.2640345,7.86817006 L22.2640345,7.86817006 Z M3.22941614,7.87546778 L4.67374625,7.87546778 C6.26951329,7.87546778 7.38192383,8.85182228 7.38192383,10.253462 C7.38192383,10.952355 7.0416115,11.6280977 6.4661303,12.0765346 C5.9818788,12.4550635 5.43012982,12.6248129 4.66616766,12.6248129 L3.22941614,12.6248129 L3.22941614,7.87546778 L3.22941614,7.87546778 L3.22941614,7.87546778 Z M7.83467449,7.87546778 L8.81867497,7.87546778 L8.81867497,12.6248129 L7.83467449,12.6248129 L7.83467449,7.87546778 L7.83467449,7.87546778 L7.83467449,7.87546778 Z M27.5584766,7.87546778 L30.3489897,7.87546778 L30.3489897,8.68020216 L28.5417289,8.68020216 L28.5417289,9.73437509 L30.2823727,9.73437509 L30.2823727,10.5387349 L28.5417289,10.5387349 L28.5417289,11.8207334 L30.3489897,11.8207334 L30.3489897,12.6248129 L27.5584766,12.6248129 L27.5584766,7.87546778 L27.5584766,7.87546778 L27.5584766,7.87546778 Z M31.0007483,7.87546778 L32.4596743,7.87546778 C33.5945384,7.87546778 34.2448541,8.3885279 34.2448541,9.27769485 C34.2448541,10.0048446 33.8369878,10.4820469 33.0958084,10.6240642 L34.6837576,12.6248129 L33.4737087,12.6248129 L32.1118074,10.7168786 L31.9835329,10.7168786 L31.9835329,12.6248129 L31.0007483,12.6248129 L31.0007483,7.87546778 L31.0007483,7.87546778 L31.0007483,7.87546778 Z M31.9835329,8.62350275 L31.9835329,10.0618453 L32.2710515,10.0618453 C32.8993878,10.0618453 33.2324101,9.80499066 33.2324101,9.32756359 C33.2324101,8.86536575 32.8993279,8.62350275 32.286583,8.62350275 L31.9835329,8.62350275 L31.9835329,8.62350275 L31.9835329,8.62350275 Z M4.21266841,8.68020216 L4.21266841,11.8207334 L4.47670285,11.8207334 C5.11254228,11.8207334 5.5141006,11.7060513 5.82325988,11.4433011 C6.16356311,11.1579823 6.36826347,10.7024077 6.36826347,10.2466319 C6.36826347,9.79158946 6.16356311,9.34959665 5.82325988,9.06427784 C5.49825533,8.78739928 5.11254228,8.68020216 4.47670285,8.68020216 L4.21266841,8.68020216 L4.21266841,8.68020216 L4.21266841,8.68020216 Z" id="Shape" fill="#4D4D4D"></path>
                            <path d="M20.0227094,7.70001221 C21.4624209,7.70001221 22.6295073,8.83122528 22.6295073,10.2286445 L22.6295073,10.2302372 C22.6295073,11.6276559 21.4624209,12.7604622 20.0227094,12.7604622 C18.582998,12.7604622 17.4159116,11.6276559 17.4159116,10.2302372 L17.4159116,10.2286445 C17.4159116,8.83122528 18.582998,7.70001221 20.0227094,7.70001221 L20.0227094,7.70001221 L20.0227094,7.70001221 Z M37,13.7997494 C35.787844,14.6791436 26.7128196,20.9640814 11,24.0000114 L34.4410972,24.0000114 C35.8540741,24.0000114 37,22.818455 37,21.3612839 L37,13.7997494 L37,13.7997494 L37,13.7997494 Z" id="Shape" fill="#F47216"></path>
                        </g>
                    </g>
                </g>
            </g>
        </g>
    </g>
</svg>