<?xml version="1.0" encoding="UTF-8"?>
<svg width="38px" height="24px" viewBox="0 0 38 24" version="1.1" xmlns="http://www.w3.org/2000/svg" xmlns:xlink="http://www.w3.org/1999/xlink">
    <!-- Generator: Sketch 44.1 (41455) - http://www.bohemiancoding.com/sketch -->
    <title>mastercard</title>
    <desc>Created with Sketch.</desc>
    <defs>
        <rect id="path-1" x="0" y="0" width="38" height="24" rx="2"></rect>
    </defs>
    <g id="Modal" stroke="none" stroke-width="1" fill="none" fill-rule="evenodd">
        <g id="01_mobile-views" transform="translate(-548.000000, -248.000000)">
            <g id="w-basic" transform="translate(480.000000, 80.000000)">
                <g id="form" transform="translate(20.000000, 168.000000)">
                    <g id="cards-list">
                        <g id="mastercard" transform="translate(48.000000, 0.000000)">
                            <g>
                                <g id="Rectangle-1">
                                    <use fill="#FFFFFF" fill-rule="evenodd" xlink:href="#path-1"></use>
                                    <rect stroke="#C3D0D9" stroke-width="1" x="0.5" y="0.5" width="37" height="23" rx="2"></rect>
                                </g>
                                <path d="M22.1150743,12 C22.1150743,17.0518047 18.0197452,21.1467092 12.9681528,21.1467092 C7.91656041,21.1467092 3.82165591,17.0518047 3.82165591,12 C3.82165591,6.94861992 7.91656041,2.85329082 12.9681528,2.85329082 C18.0197452,2.85329082 22.1150743,6.94861992 22.1150743,12" id="Fill-1" fill="#D9222A"></path>
                                <path d="M25.247983,2.85329082 C22.8847134,2.85329082 20.7312102,3.7498938 19.1078556,5.22101906 C18.7772823,5.52080678 18.4685775,5.84458599 18.1842887,6.18895964 L20.0322717,6.18895964 C20.2849257,6.49617834 20.5176221,6.81932056 20.7295117,7.15774945 L17.4870488,7.15774945 C17.2927813,7.46878981 17.1163482,7.79193203 16.9600849,8.12632698 L21.2562633,8.12632698 C21.4029724,8.44012739 21.5324841,8.76305732 21.6435244,9.09469213 L16.5728237,9.09469213 C16.4670913,9.41019108 16.3781316,9.73312102 16.3070063,10.0632697 L21.9091295,10.0632697 C22.0435244,10.6874735 22.1150743,11.3354565 22.1150743,12 C22.1150743,13.0157113 21.9492569,13.9929937 21.6435244,14.9055202 L16.5728237,14.9055202 C16.6836518,15.2373673 16.8131635,15.5605096 16.9598726,15.8740977 L21.2562633,15.8740977 C21.0995754,16.2084926 20.9235669,16.5316349 20.729087,16.8428875 L17.4870488,16.8428875 C17.6987261,17.1806795 17.9318471,17.5042464 18.1842887,17.8108281 L20.0318471,17.8108281 C19.747983,18.1558387 19.4390658,18.4800425 19.1080679,18.7796179 C20.7314225,20.2505309 22.8847134,21.1467092 25.247983,21.1467092 C30.2995754,21.1467092 34.3949046,17.0518047 34.3949046,12 C34.3949046,6.94883225 30.2995754,2.85329082 25.247983,2.85329082" id="Fill-2" fill="#EE9F2D"></path>
                                <path d="M33.1757963,17.0985139 C33.1757963,16.9354566 33.3078557,16.8029725 33.4711254,16.8029725 C33.634395,16.8029725 33.7664545,16.9354566 33.7664545,17.0985139 C33.7664545,17.2615712 33.634395,17.3940553 33.4711254,17.3940553 C33.3078557,17.3940553 33.1757963,17.2615712 33.1757963,17.0985139 L33.1757963,17.0985139 L33.1757963,17.0985139 Z M33.4711254,17.3231423 C33.5951169,17.3231423 33.6957538,17.2225054 33.6957538,17.0985139 C33.6957538,16.9743101 33.5951169,16.8740977 33.4711254,16.8740977 C33.3469215,16.8740977 33.2467092,16.9743101 33.2467092,17.0985139 C33.2467092,17.2225054 33.3469215,17.3231423 33.4711254,17.3231423 L33.4711254,17.3231423 L33.4711254,17.3231423 Z M33.4312103,17.2284502 L33.3707007,17.2284502 L33.3707007,16.9687899 L33.4802549,16.9687899 C33.5031848,16.9687899 33.5265394,16.9687899 33.5467092,16.981741 C33.5677284,16.9959661 33.5796179,17.0210192 33.5796179,17.0469215 C33.5796179,17.0760086 33.5624205,17.1031848 33.5346073,17.1138005 L33.582378,17.2284502 L33.5152867,17.2284502 L33.4755839,17.1256901 L33.4312103,17.1256901 L33.4312103,17.2284502 L33.4312103,17.2284502 Z M33.4312103,17.1146132 L33.4704162,17.1146132 C33.4850565,17.1146132 33.500441,17.1162106 33.5135924,17.1069456 C33.525255,17.0973611 33.5312103,17.0794701 33.5312103,17.0622181 C33.5312103,17.0472024 33.5240142,17.0299503 33.5140887,17.0226023 C33.5016817,17.0126983 33.4820788,17.0149347 33.4689274,17.0149347 L33.4312103,17.0149347 L33.4312103,17.1146132 L33.4312103,17.1146132 Z" id="Fill-3" fill="#000000"></path>
                                <path d="M10.832484,13.0014862 C10.7282377,12.9893843 10.6823778,12.9861996 10.6108279,12.9861996 C10.0479829,12.9861996 9.76305722,13.1791932 9.76305722,13.5602973 C9.76305722,13.7953291 9.90212306,13.9447983 10.1191082,13.9447983 C10.5235668,13.9447983 10.8150742,13.5596603 10.832484,13.0014862 L10.832484,13.0014862 L10.832484,13.0014862 Z M11.5545647,14.6828026 L10.731847,14.6828026 L10.750743,14.2917198 C10.4997876,14.6008493 10.1649681,14.7477708 9.7099787,14.7477708 C9.17176214,14.7477708 8.80276,14.3273886 8.80276,13.7169852 C8.80276,12.7985138 9.44458589,12.2626327 10.5462844,12.2626327 C10.658811,12.2626327 10.8031846,12.2728238 10.9509553,12.2917198 C10.9817409,12.1673036 10.9898088,12.1140127 10.9898088,12.0471338 C10.9898088,11.7970276 10.8167727,11.7038217 10.3528661,11.7038217 C9.86709121,11.6983015 9.46645427,11.8195329 9.30191073,11.8736731 C9.31231414,11.8110404 9.43949034,11.0248408 9.43949034,11.0248408 C9.9343948,10.8798302 10.2607218,10.8252654 10.6280254,10.8252654 C11.4806793,10.8252654 11.9322717,11.208068 11.9314224,11.9316349 C11.933121,12.1254777 11.9010615,12.3647559 11.8509554,12.6791932 C11.7647558,13.2259024 11.5798301,14.3972399 11.5545647,14.6828026 L11.5545647,14.6828026 L11.5545647,14.6828026 Z" id="Fill-4" fill="#000000"></path>
                                <polyline id="Fill-5" fill="#000000" points="8.38726104 14.6828026 7.39426741 14.6828026 7.96305722 11.1161359 6.69299353 14.6828026 6.01634808 14.6828026 5.93269625 11.1365181 5.33481941 14.6828026 4.40530772 14.6828026 5.18174084 10.0430998 6.60955404 10.0430998 6.69617824 12.6401274 7.56709121 10.0430998 9.15520163 10.0430998 8.38726104 14.6828026"></polyline>
                                <path d="M26.4751593,13.0014862 C26.3713376,12.9893843 26.3252654,12.9861996 26.2539278,12.9861996 C25.6912951,12.9861996 25.4063695,13.1791932 25.4063695,13.5602973 C25.4063695,13.7953291 25.545223,13.9447983 25.7622081,13.9447983 C26.1666667,13.9447983 26.4583864,13.5596603 26.4751593,13.0014862 L26.4751593,13.0014862 L26.4751593,13.0014862 Z M27.1978769,14.6828026 L26.3751593,14.6828026 L26.393843,14.2917198 C26.1428875,14.6008493 25.8078556,14.7477708 25.3532909,14.7477708 C24.814862,14.7477708 24.4462845,14.3273886 24.4462845,13.7169852 C24.4462845,12.7985138 25.0876858,12.2626327 26.1895966,12.2626327 C26.3021232,12.2626327 26.4462845,12.2728238 26.593843,12.2917198 C26.6246285,12.1673036 26.6326965,12.1140127 26.6326965,12.0471338 C26.6326965,11.7970276 26.4598727,11.7038217 25.9959661,11.7038217 C25.5101911,11.6983015 25.1099788,11.8195329 24.9447983,11.8736731 C24.9552017,11.8110404 25.0828026,11.0248408 25.0828026,11.0248408 C25.5777071,10.8798302 25.9038217,10.8252654 26.2707007,10.8252654 C27.1237793,10.8252654 27.5753716,11.208068 27.5745223,11.9316349 C27.5762208,12.1254777 27.5441614,12.3647559 27.4940552,12.6791932 C27.4082803,13.2259024 27.22293,14.3972399 27.1978769,14.6828026 L27.1978769,14.6828026 L27.1978769,14.6828026 Z" id="Fill-6" fill="#000000"></path>
                                <path d="M15.9677282,14.6254778 C15.695966,14.7110404 15.4840764,14.7477708 15.2543524,14.7477708 C14.7467091,14.7477708 14.469639,14.456051 14.469639,13.918896 C14.4624203,13.7522294 14.5426751,13.3135881 14.6057324,12.9131635 C14.6630573,12.5607219 15.0363057,10.3384289 15.0363057,10.3384289 L16.0233545,10.3384289 L15.9080679,10.9095541 L16.5042463,10.9095541 L16.369639,11.8163482 L15.7713375,11.8163482 C15.6566878,12.5339703 15.4934182,13.4278132 15.4915074,13.5462845 C15.4915074,13.7407644 15.5953291,13.82569 15.8314225,13.82569 C15.9445859,13.82569 16.0322717,13.8142251 16.0991507,13.7900212 L15.9677282,14.6254778" id="Fill-7" fill="#000000"></path>
                                <path d="M18.9940552,14.5949045 C18.6549894,14.6985138 18.3278131,14.74862 17.981104,14.7477708 C16.8762208,14.7467092 16.3002123,14.1696391 16.3002123,13.0645435 C16.3002123,11.7747346 17.0329087,10.8252654 18.0276008,10.8252654 C18.8414013,10.8252654 19.3611465,11.3569002 19.3611465,12.1906582 C19.3611465,12.4673036 19.3254777,12.7373673 19.2394904,13.1186837 L17.2738853,13.1186837 C17.207431,13.6660298 17.5577495,13.8940552 18.1318471,13.8940552 C18.485138,13.8940552 18.8038217,13.8212314 19.1581741,13.6564756 L18.9940552,14.5949045 L18.9940552,14.5949045 Z M18.4392781,12.3579618 C18.4447983,12.2794056 18.543949,11.6845011 17.9800424,11.6845011 C17.6656051,11.6845011 17.4407643,11.9242038 17.3492569,12.3579618 L18.4392781,12.3579618 L18.4392781,12.3579618 Z" id="Fill-8" fill="#000000"></path>
                                <path d="M12.1501061,12.1023355 C12.1501061,12.5796179 12.3815286,12.9087049 12.9063694,13.1558387 C13.3084925,13.3447983 13.3707006,13.4008493 13.3707006,13.5721869 C13.3707006,13.807431 13.1934182,13.9135881 12.8004246,13.9135881 C12.5042462,13.9135881 12.2286624,13.8673036 11.910828,13.7647559 C11.910828,13.7647559 11.7802547,14.5963907 11.7743099,14.6360935 C11.9999999,14.6853504 12.2012738,14.7309979 12.8076433,14.7477708 C13.855414,14.7477708 14.3392781,14.3488323 14.3392781,13.4866243 C14.3392781,12.9681529 14.1367303,12.6639066 13.6392781,12.4352442 C13.2229299,12.2441614 13.1751592,12.2014862 13.1751592,12.0252654 C13.1751592,11.8212314 13.3401273,11.7171975 13.6611464,11.7171975 C13.8560509,11.7171975 14.1222929,11.7380043 14.3745222,11.7738854 L14.5159235,10.8987261 C14.258811,10.8579618 13.8690021,10.8252654 13.6420382,10.8252654 C12.5312101,10.8252654 12.146709,11.4055202 12.1501061,12.1023355" id="Fill-9" fill="#000000"></path>
                                <path d="M23.8233546,10.9244162 C24.0991508,10.9244162 24.3562633,10.9968153 24.7106157,11.1751592 L24.8730361,10.1681529 C24.7276009,10.1110404 24.215499,9.77579618 23.781741,9.77579618 C23.1171975,9.77579618 22.555414,10.1055202 22.1602973,10.6496815 C21.5840764,10.4588111 21.3471338,10.844586 21.0566879,11.2288748 L20.7987261,11.2889597 C20.818259,11.1624204 20.8358811,11.0367304 20.8299363,10.9095541 L19.9180467,10.9095541 C19.7934182,12.0772824 19.5726115,13.2600849 19.3997877,14.4292994 L19.3547771,14.6828026 L20.3481953,14.6828026 C20.5140127,13.6055202 20.6048832,12.9157113 20.6600849,12.4488323 L21.0341826,12.2407644 C21.0900212,12.0329087 21.2649682,11.9626327 21.6159236,11.9711253 C21.5700637,12.2174098 21.5454353,12.4764332 21.5454353,12.7447983 C21.5454353,13.9791932 22.211465,14.7477708 23.2804671,14.7477708 C23.5558387,14.7477708 23.7921444,14.711465 24.1579618,14.6123143 L24.3326964,13.5545648 C24.0036094,13.7165606 23.7335457,13.7927814 23.4889597,13.7927814 C22.9116773,13.7927814 22.5624204,13.3666667 22.5624204,12.6624204 C22.5624204,11.6407643 23.0819533,10.9244162 23.8233546,10.9244162" id="Fill-10" fill="#000000"></path>
                                <polyline id="Fill-12" fill="#FFFFFF" points="8.67303597 14.4072188 7.67983006 14.4072188 8.24904448 10.8409767 6.97898079 14.4072188 6.30212301 14.4072188 6.21847124 10.8613588 5.62059434 14.4072188 4.69108268 14.4072188 5.46751582 9.76815287 6.89532897 9.76815287 6.93545636 12.6401274 7.89872601 9.76815287 9.44097656 9.76815287 8.67303597 14.4072188"></polyline>
                                <path d="M32.230361,10.0430998 L32.0101912,11.3836518 C31.7386413,11.026327 31.4469215,10.7677283 31.0617835,10.7677283 C30.5607219,10.7677283 30.104671,11.1475584 29.8061572,11.7065818 C29.3904459,11.6203822 28.9605096,11.4740977 28.9605096,11.4740977 L28.9602973,11.4774947 C28.993843,11.1649682 29.0072188,10.97431 29.0042464,10.9095541 L28.0921444,10.9095541 C27.9679406,12.0772824 27.7471338,13.2600849 27.5745223,14.4292994 L27.5290871,14.6828026 L28.522293,14.6828026 C28.6564757,13.8116773 28.7592357,13.0883228 28.8348196,12.5146497 C29.1740977,12.208068 29.3439491,11.9405521 29.6868366,11.9583864 C29.5350319,12.3254778 29.4460723,12.7484077 29.4460723,13.1821657 C29.4460723,14.1254778 29.9233546,14.7477708 30.645223,14.7477708 C31.0091296,14.7477708 31.2883228,14.622293 31.5607219,14.3314226 L31.5142251,14.6821657 L32.4535033,14.6821657 L33.2097666,10.0430998 L32.230361,10.0430998 L32.230361,10.0430998 Z M30.9885351,13.8108281 C30.6505309,13.8108281 30.4798302,13.5607219 30.4798302,13.0670913 C30.4798302,12.3254778 30.7993632,11.7995754 31.2498939,11.7995754 C31.5910829,11.7995754 31.7757963,12.0596603 31.7757963,12.5388536 C31.7757963,13.2868365 31.4511678,13.8108281 30.9885351,13.8108281 L30.9885351,13.8108281 L30.9885351,13.8108281 Z" id="Fill-11" fill="#000000"></path>
                                <path d="M11.1180466,12.7265393 C11.0140126,12.7144374 10.9679405,12.7112527 10.8966029,12.7112527 C10.3337579,12.7112527 10.0490445,12.9042463 10.0490445,13.2853504 C10.0490445,13.5199576 10.1881103,13.6698514 10.4046708,13.6698514 C10.809554,13.6698514 11.1010615,13.2847134 11.1180466,12.7265393 L11.1180466,12.7265393 L11.1180466,12.7265393 Z M11.8405519,14.4072188 L11.0178343,14.4072188 L11.036518,14.0167728 C10.7857749,14.3252654 10.4505307,14.4728238 9.99596596,14.4728238 C9.45753707,14.4728238 9.08874726,14.0524416 9.08874726,13.4420383 C9.08874726,12.5231423 9.73036087,11.9876858 10.8322717,11.9876858 C10.9447982,11.9876858 11.0891719,11.9978769 11.2367303,12.0167728 C11.2675159,11.8923567 11.2755838,11.8390658 11.2755838,11.7717622 C11.2755838,11.5216561 11.10276,11.4288748 10.6388534,11.4288748 C10.1528661,11.4233546 9.75244153,11.544586 9.58768571,11.5980892 C9.59808907,11.5356688 9.72526532,10.7503185 9.72526532,10.7503185 C10.2199575,10.6046709 10.546709,10.5501062 10.913588,10.5501062 C11.7664543,10.5501062 12.218259,10.933121 12.2174097,11.656051 C12.2188959,11.8507431 12.1866242,12.0898089 12.1367303,12.4038217 C12.050743,12.9503185 11.865605,14.122293 11.8405519,14.4072188 L11.8405519,14.4072188 L11.8405519,14.4072188 Z" id="Fill-13" fill="#FFFFFF"></path>
                                <path d="M25.1590234,9.89299363 L24.9963907,10.9002123 C24.6422505,10.7220807 24.3849257,10.6494692 24.1093419,10.6494692 C23.3679406,10.6494692 22.8481954,11.3658174 22.8481954,12.3874735 C22.8481954,13.0917198 23.1976646,13.5176221 23.7747346,13.5176221 C24.0193206,13.5176221 24.289172,13.4416136 24.6182591,13.2794056 L24.4439491,14.3367304 C24.0779193,14.4365181 23.8418259,14.4728238 23.566242,14.4728238 C22.4974522,14.4728238 21.8312102,13.7042463 21.8312102,12.4698514 C21.8312102,10.8112527 22.7513801,9.65201697 24.067516,9.65201697 C24.5010616,9.65201697 25.0133758,9.83588112 25.1590234,9.89299363" id="Fill-14" fill="#FFFFFF"></path>
                                <path d="M26.7611465,12.7265393 C26.6571126,12.7144374 26.6112527,12.7112527 26.5397028,12.7112527 C25.9770701,12.7112527 25.6921444,12.9042463 25.6921444,13.2853504 C25.6921444,13.5199576 25.8312102,13.6698514 26.0479831,13.6698514 C26.4524417,13.6698514 26.7441614,13.2847134 26.7611465,12.7265393 L26.7611465,12.7265393 L26.7611465,12.7265393 Z M27.4836519,14.4072188 L26.6607219,14.4072188 L26.6796179,14.0167728 C26.4286625,14.3252654 26.0936306,14.4728238 25.6390658,14.4728238 C25.1008493,14.4728238 24.7318472,14.0524416 24.7318472,13.4420383 C24.7318472,12.5231423 25.3736731,11.9876858 26.4751593,11.9876858 C26.5878981,11.9876858 26.7320595,11.9978769 26.8798302,12.0167728 C26.9104035,11.8923567 26.9186837,11.8390658 26.9186837,11.7717622 C26.9186837,11.5216561 26.7458599,11.4288748 26.2819533,11.4288748 C25.7961784,11.4233546 25.3955415,11.544586 25.2307856,11.5980892 C25.241189,11.5356688 25.3685775,10.7503185 25.3685775,10.7503185 C25.8632697,10.6046709 26.189809,10.5501062 26.5566879,10.5501062 C27.4097665,10.5501062 27.8613589,10.933121 27.8602973,11.656051 C27.8619958,11.8507431 27.8299364,12.0898089 27.7798302,12.4038217 C27.6940552,12.9503185 27.5084926,14.122293 27.4836519,14.4072188 L27.4836519,14.4072188 L27.4836519,14.4072188 Z" id="Fill-15" fill="#FFFFFF"></path>
                                <path d="M16.2535031,14.3501062 C15.9815286,14.4356688 15.769639,14.4728238 15.5401273,14.4728238 C15.032484,14.4728238 14.755414,14.1811041 14.755414,13.6439491 C14.7484076,13.4768578 14.8286624,13.0386412 14.8917197,12.6382166 C14.9488322,12.2853504 15.3220806,10.0632697 15.3220806,10.0632697 L16.3089171,10.0632697 L16.1938429,10.6346072 L16.7004246,10.6346072 L16.565605,11.5409767 L16.0573248,11.5409767 C15.9426751,12.2590234 15.7789808,13.1522294 15.7772823,13.270913 C15.7772823,13.4660298 15.8813163,13.5503185 16.1171974,13.5503185 C16.2303609,13.5503185 16.3178343,13.5392782 16.3849257,13.5150743 L16.2535031,14.3501062" id="Fill-16" fill="#FFFFFF"></path>
                                <path d="M19.2798301,14.3199576 C18.9409766,14.4235669 18.6133758,14.4734608 18.266879,14.4728238 C17.1619957,14.4717622 16.5859872,13.8946922 16.5859872,12.7895966 C16.5859872,11.4993631 17.3186836,10.5501062 18.3133758,10.5501062 C19.1271762,10.5501062 19.6469214,11.0815287 19.6469214,11.9157113 C19.6469214,12.192569 19.6112526,12.4626327 19.5254777,12.8437368 L17.5598726,12.8437368 C17.4934182,13.3910829 17.8437367,13.6193206 18.4178344,13.6193206 C18.7709129,13.6193206 19.0898089,13.5462845 19.443949,13.3811041 L19.2798301,14.3199576 L19.2798301,14.3199576 Z M18.7248408,12.0823779 C18.7307855,12.004034 18.829724,11.4089172 18.2656051,11.4089172 C17.95138,11.4089172 17.7265393,11.6492569 17.6350318,12.0823779 L18.7248408,12.0823779 L18.7248408,12.0823779 Z" id="Fill-17" fill="#FFFFFF"></path>
                                <path d="M12.435881,11.8273885 C12.435881,12.3046709 12.6673035,12.6333334 13.1921443,12.8808918 C13.5942675,13.0698514 13.6564755,13.1261147 13.6564755,13.2972399 C13.6564755,13.5324841 13.4789808,13.6386412 13.0864118,13.6386412 C12.7900211,13.6386412 12.5144373,13.5923567 12.1963906,13.489809 C12.1963906,13.489809 12.066242,14.3214438 12.0602972,14.3611465 C12.2855625,14.4104035 12.4870488,14.4554141 13.0934182,14.4728238 C14.1414012,14.4728238 14.625053,14.0738854 14.625053,13.2118896 C14.625053,12.693206 14.4227176,12.3889597 13.925053,12.1602973 C13.5089171,11.9687898 13.4607218,11.9267516 13.4607218,11.7503185 C13.4607218,11.5464968 13.6261146,11.4416136 13.9469214,11.4416136 C14.1416136,11.4416136 14.4078556,11.4630573 14.6605095,11.4989384 L14.8016984,10.6235669 C14.5447983,10.5828025 14.1549894,10.5501062 13.9280254,10.5501062 C12.8169851,10.5501062 12.4326963,11.1299363 12.435881,11.8273885" id="Fill-18" fill="#FFFFFF"></path>
                                <path d="M32.7392782,14.4072188 L31.7997878,14.4072188 L31.8464969,14.056051 C31.5740977,14.3473461 31.2949046,14.4728238 30.930998,14.4728238 C30.2091296,14.4728238 29.7320595,13.8505308 29.7320595,12.9072187 C29.7320595,11.6522293 30.4719746,10.5942675 31.3477708,10.5942675 C31.7329088,10.5942675 32.0244162,10.7515924 32.2957538,11.1087049 L32.516136,9.76815287 L33.4955415,9.76815287 L32.7392782,14.4072188 L32.7392782,14.4072188 Z M31.2745224,13.5354565 C31.7369428,13.5354565 32.0617835,13.011465 32.0617835,12.2639066 C32.0617835,11.7847134 31.8768578,11.5246285 31.5356689,11.5246285 C31.0853504,11.5246285 30.7653929,12.0503185 30.7653929,12.7921444 C30.7653929,13.285775 30.9365181,13.5354565 31.2745224,13.5354565 L31.2745224,13.5354565 L31.2745224,13.5354565 Z" id="Fill-19" fill="#FFFFFF"></path>
                                <path d="M28.3781317,10.6346072 C28.2537156,11.8023355 28.0329087,12.985138 27.8602973,14.1537155 L27.8148621,14.4072188 L28.808068,14.4072188 C29.1632697,12.1002123 29.249257,11.6496815 29.8061572,11.7061571 C29.8949045,11.2339703 30.060085,10.8203822 30.1832273,10.6116773 C29.7673037,10.5250531 29.5350319,10.7600849 29.230998,11.2065818 C29.2549895,11.0135881 29.2989385,10.8261146 29.2902336,10.6346072 L28.3781317,10.6346072" id="Fill-20" fill="#FFFFFF"></path>
                                <path d="M20.2038217,10.6346072 C20.0791932,11.8023355 19.8583864,12.985138 19.6857749,14.1537155 L19.640552,14.4072188 L20.6341826,14.4072188 C20.9889596,12.1002123 21.0747346,11.6496815 21.6314225,11.7061571 C21.7205945,11.2339703 21.885775,10.8203822 22.0084926,10.6116773 C21.5929936,10.5250531 21.3605096,10.7600849 21.0566879,11.2065818 C21.0806794,11.0135881 21.1242038,10.8261146 21.1159236,10.6346072 L20.2038217,10.6346072" id="Fill-21" fill="#FFFFFF"></path>
                                <path d="M33.1753717,14.1118896 C33.1753717,13.9481954 33.3076434,13.8163482 33.4707007,13.8163482 C33.6339704,13.8163482 33.7660298,13.9481954 33.7660298,14.1118896 C33.7660298,14.2747346 33.6339704,14.4072188 33.4707007,14.4072188 C33.3076434,14.4072188 33.1753717,14.2747346 33.1753717,14.1118896 L33.1753717,14.1118896 L33.1753717,14.1118896 Z M33.4707007,14.3363058 C33.5949046,14.3363058 33.6951169,14.2356688 33.6951169,14.1118896 C33.6951169,13.9878981 33.5949046,13.8872612 33.4707007,13.8872612 C33.3467092,13.8872612 33.2460723,13.9878981 33.2460723,14.1118896 C33.2460723,14.2356688 33.3467092,14.3363058 33.4707007,14.3363058 L33.4707007,14.3363058 L33.4707007,14.3363058 Z M33.4307857,14.2409767 L33.3702761,14.2409767 L33.3702761,13.9819533 L33.4800425,13.9819533 C33.5027602,13.9819533 33.5263271,13.9823779 33.5460723,13.9949045 C33.5673037,14.0093419 33.5794056,14.0339703 33.5794056,14.0598727 C33.5794056,14.089172 33.5622082,14.1165606 33.5341827,14.1269639 L33.5821657,14.2409767 L33.5148621,14.2409767 L33.4751593,14.1386412 L33.4307857,14.1386412 L33.4307857,14.2409767 L33.4307857,14.2409767 Z M33.4307857,14.12795 L33.4697435,14.12795 C33.4843837,14.12795 33.5002646,14.1292309 33.5131678,14.120264 C33.5248303,14.1106564 33.5307857,14.0924022 33.5307857,14.0751086 C33.5307857,14.0606973 33.5238378,14.0434038 33.5136641,14.034757 C33.5015053,14.02579 33.481406,14.028352 33.4682546,14.028352 L33.4307857,14.028352 L33.4307857,14.12795 L33.4307857,14.12795 Z" id="Fill-22" fill="#FFFFFF"></path>
                            </g>
                        </g>
                    </g>
                </g>
            </g>
        </g>
    </g>
</svg>