<?xml version="1.0" encoding="UTF-8"?>
<svg width="38px" height="24px" viewBox="0 0 38 24" version="1.1" xmlns="http://www.w3.org/2000/svg" xmlns:xlink="http://www.w3.org/1999/xlink">
    <!-- Generator: Sketch 44.1 (41455) - http://www.bohemiancoding.com/sketch -->
    <title>visa</title>
    <desc>Created with Sketch.</desc>
    <defs>
        <rect id="path-1" x="0" y="0" width="38" height="24" rx="2"></rect>
    </defs>
    <g id="Modal" stroke="none" stroke-width="1" fill="none" fill-rule="evenodd">
        <g id="01_mobile-views" transform="translate(-500.000000, -248.000000)">
            <g id="w-basic" transform="translate(480.000000, 80.000000)">
                <g id="form" transform="translate(20.000000, 168.000000)">
                    <g id="cards-list">
                        <g id="visa">
                            <g id="Rectangle-1">
                                <use fill="#FFFFFF" fill-rule="evenodd" xlink:href="#path-1"></use>
                                <rect stroke="#C3D0D9" stroke-width="1" x="0.5" y="0.5" width="37" height="23" rx="2"></rect>
                            </g>
                            <polygon id="Shape" fill="#0E4595" points="13.1756688 17.0307006 14.8755924 7.05556688 17.5945223 7.05556688 15.8934268 17.0307006"></polygon>
                            <path d="M25.7163057,7.27070064 C25.1776051,7.06861146 24.3335796,6.85174522 23.279465,6.85174522 C20.5928917,6.85174522 18.7004076,8.20466242 18.6843057,10.1436688 C18.669172,11.5769936 20.0353376,12.376586 21.0666752,12.8537325 C22.1249682,13.3426497 22.4807898,13.6544968 22.4757452,14.0910828 C22.4690191,14.7597197 21.6305987,15.0651975 20.8490955,15.0651975 C19.7608408,15.0651975 19.1827006,14.9140127 18.2898089,14.5415796 L17.9394395,14.3830064 L17.5578344,16.6160764 C18.1928917,16.8944968 19.3672102,17.1357707 20.5865223,17.1482548 C23.4445605,17.1482548 25.299949,15.810828 25.3210446,13.7402548 C25.3312866,12.6055287 24.6069045,11.7419363 23.038293,11.0300382 C22.0879236,10.568586 21.5059108,10.2606624 21.5120764,9.79340127 C21.5120764,9.37877707 22.0047134,8.93541401 23.069121,8.93541401 C23.958242,8.9216051 24.6022675,9.11549045 25.1040764,9.31757962 L25.3477452,9.4326879 L25.7163057,7.27070064" id="path13" fill="#0E4595"></path>
                            <path d="M32.7128408,7.05556688 L30.6118981,7.05556688 C29.9610446,7.05556688 29.4740127,7.23319745 29.1881529,7.88277707 L25.1501911,17.0243312 L28.0052739,17.0243312 C28.0052739,17.0243312 28.4721274,15.7951847 28.577707,15.5253248 C28.889707,15.5253248 31.6632611,15.5296051 32.0597962,15.5296051 C32.141121,15.8788025 32.3905987,17.0243312 32.3905987,17.0243312 L34.9135032,17.0243312 L32.7128408,7.05556688 L32.7128408,7.05556688 Z M29.3794904,13.4966879 C29.6043567,12.9219618 30.4627516,10.7082548 30.4627516,10.7082548 C30.4467006,10.7348025 30.6859363,10.1307261 30.8232611,9.75620382 L31.0070573,10.6162293 C31.0070573,10.6162293 31.5276688,12.9973248 31.6364586,13.4966369 L29.3794904,13.4966369 L29.3794904,13.4966879 L29.3794904,13.4966879 Z" id="Path" fill="#0E4595"></path>
                            <path d="M10.8676433,7.05556688 L8.20573248,13.8578599 L7.92211465,12.4754904 C7.42657325,10.8819108 5.8826242,9.15543949 4.15656051,8.2910828 L6.59054777,17.0148025 L9.46723567,17.0114904 L13.7476943,7.05556688 L10.8676433,7.05556688" id="path16" fill="#0E4595"></path>
                            <path d="M5.72201274,7.05556688 L1.33775796,7.05556688 L1.30305732,7.26310828 C4.71396178,8.08878981 6.97092994,10.0841529 7.90779618,12.4816561 L6.95447134,7.89770701 C6.78988535,7.26606369 6.31253503,7.07757962 5.72201274,7.05556688" id="path18" fill="#F2AE14"></path>
                        </g>
                    </g>
                </g>
            </g>
        </g>
    </g>
</svg>