<?xml version="1.0" encoding="UTF-8"?>
<svg width="8px" height="13px" viewBox="0 0 8 13" version="1.1" xmlns="http://www.w3.org/2000/svg" xmlns:xlink="http://www.w3.org/1999/xlink">
    <!-- Generator: Sketch 44.1 (41455) - http://www.bohemiancoding.com/sketch -->
    <title>help-question-icon</title>
    <desc>Created with Sketch.</desc>
    <defs></defs>
    <g id="Modal" stroke="none" stroke-width="1" fill="none" fill-rule="evenodd">
        <g id="01_mobile-views" transform="translate(-756.000000, -346.000000)" fill="#FFFFFF">
            <g id="w-basic" transform="translate(480.000000, 80.000000)">
                <g id="form" transform="translate(20.000000, 168.000000)">
                    <g id="input-group" transform="translate(0.000000, 44.000000)">
                        <g id="i" transform="translate(139.000000, 39.000000)">
                            <g id="help" transform="translate(109.000000, 8.000000)">
                                <g id="help-question-icon" transform="translate(8.000000, 7.000000)">
                                    <path d="M2.53125,9.265625 C2.53645836,8.53645469 2.6445302,8.00260586 2.85546875,7.6640625 C3.0664073,7.32551914 3.48697602,6.91406492 4.1171875,6.4296875 C4.48698102,6.12760266 4.78255098,5.80208508 5.00390625,5.453125 C5.22526152,5.10416492 5.3359375,4.71354383 5.3359375,4.28125 C5.3359375,3.80208094 5.20963668,3.42708469 4.95703125,3.15625 C4.70442582,2.88541531 4.34375234,2.75 3.875,2.75 C3.48958141,2.75 3.16276176,2.86458219 2.89453125,3.09375 C2.62630074,3.32291781 2.48958336,3.65885195 2.484375,4.1015625 L0.265625,4.1015625 L0.25,4.0546875 C0.234374922,3.0546825 0.563798711,2.28906516 1.23828125,1.7578125 C1.91276379,1.22655984 2.79166125,0.9609375 3.875,0.9609375 C5.0416725,0.9609375 5.95702793,1.25650746 6.62109375,1.84765625 C7.28515957,2.43880504 7.6171875,3.24218242 7.6171875,4.2578125 C7.6171875,4.91927414 7.42317902,5.53124719 7.03515625,6.09375 C6.64713348,6.65625281 6.16146125,7.12760227 5.578125,7.5078125 C5.26041508,7.75260539 5.05208383,7.99869668 4.953125,8.24609375 C4.85416617,8.49349082 4.8046875,8.83333117 4.8046875,9.265625 L2.53125,9.265625 Z M4.8203125,12.5 L2.5234375,12.5 L2.5234375,10.546875 L4.8203125,10.546875 L4.8203125,12.5 Z" id="?"></path>
                                </g>
                            </g>
                        </g>
                    </g>
                </g>
            </g>
        </g>
    </g>
</svg>