<?xml version="1.0" encoding="UTF-8"?>
<svg width="6px" height="13px" viewBox="0 0 6 13" version="1.1" xmlns="http://www.w3.org/2000/svg" xmlns:xlink="http://www.w3.org/1999/xlink">
    <!-- Generator: Sketch 44.1 (41455) - http://www.bohemiancoding.com/sketch -->
    <title>help-i-icon</title>
    <desc>Created with Sketch.</desc>
    <defs></defs>
    <g id="Modal" stroke="none" stroke-width="1" fill="none" fill-rule="evenodd">
        <g id="01_mobile-views" transform="translate(-610.000000, -131.000000)" fill="#FFFFFF">
            <g id="w-basic" transform="translate(480.000000, 80.000000)">
                <g id="header" transform="translate(20.000000, 20.000000)">
                    <g id="help" transform="translate(101.000000, 26.000000)">
                        <g id="help-i-icon" transform="translate(9.000000, 5.000000)">
                            <path d="M5.390625,12.5 L0.453125,12.5 L0.453125,11.9296875 C0.588542344,11.9192708 0.721353516,11.9062501 0.8515625,11.890625 C0.981771484,11.8749999 1.09374953,11.8489585 1.1875,11.8125 C1.3541675,11.7499997 1.47135383,11.6601568 1.5390625,11.5429688 C1.60677117,11.4257807 1.640625,11.2708343 1.640625,11.078125 L1.640625,6.53125 C1.640625,6.34895742 1.59895875,6.18880277 1.515625,6.05078125 C1.43229125,5.91275973 1.32812563,5.80208375 1.203125,5.71875 C1.10937453,5.65624969 0.967448867,5.59635445 0.77734375,5.5390625 C0.587238633,5.48177055 0.414063281,5.44531258 0.2578125,5.4296875 L0.2578125,4.859375 L4.0859375,4.65625 L4.203125,4.7734375 L4.203125,10.9765625 C4.203125,11.1588551 4.24218711,11.3138014 4.3203125,11.4414062 C4.39843789,11.5690111 4.51041594,11.6640622 4.65625,11.7265625 C4.76041719,11.7734377 4.87499937,11.815104 5,11.8515625 C5.12500063,11.888021 5.25520766,11.9140624 5.390625,11.9296875 L5.390625,12.5 Z M4.25,1.84375 C4.25,2.23958531 4.09765777,2.57682152 3.79296875,2.85546875 C3.48827973,3.13411598 3.12760625,3.2734375 2.7109375,3.2734375 C2.28906039,3.2734375 1.92578277,3.13411598 1.62109375,2.85546875 C1.31640473,2.57682152 1.1640625,2.23958531 1.1640625,1.84375 C1.1640625,1.44791469 1.31640473,1.10937641 1.62109375,0.828125 C1.92578277,0.546873594 2.28906039,0.40625 2.7109375,0.40625 C3.13281461,0.40625 3.49479016,0.546873594 3.796875,0.828125 C4.09895984,1.10937641 4.25,1.44791469 4.25,1.84375 Z" id="i"></path>
                        </g>
                    </g>
                </g>
            </g>
        </g>
    </g>
</svg>